<?xml version="1.0" standalone="no"?>
<!DOCTYPE svg PUBLIC "-//W3C//DTD SVG 20010904//EN"
 "http://www.w3.org/TR/2001/REC-SVG-20010904/DTD/svg10.dtd">
<svg version="1.0" xmlns="http://www.w3.org/2000/svg"
 width="500" height="500" viewBox="0 0 500.000000 500.000000"
 preserveAspectRatio="xMidYMid meet">

<g transform="translate(0.000000,500.000000) scale(0.100000,-0.100000)"
fill="#000000" stroke="none">
<path d="M1697 3499 c-78 -18 -143 -72 -171 -141 -24 -56 -24 -1020 0 -1076
19 -47 67 -97 119 -125 l40 -22 845 0 845 0 53 30 c59 32 103 87 121 150 17
63 14 968 -3 1018 -25 68 -65 115 -125 144 l-56 28 -815 2 c-458 1 -832 -3
-853 -8z m1709 -36 c61 -33 111 -96 124 -157 8 -35 10 -202 8 -521 -3 -523 0
-497 -75 -570 -68 -66 -48 -65 -930 -65 -546 0 -808 3 -838 11 -53 13 -119 67
-145 120 -19 36 -20 61 -20 539 0 473 1 503 19 538 28 54 73 92 133 113 50 17
99 18 868 16 l815 -2 41 -22z"/>
<path d="M2263 3346 c-10 -13 -27 -42 -37 -65 -11 -22 -24 -41 -30 -42 -79 -5
-85 -4 -88 16 -3 18 -12 20 -75 23 -64 3 -72 1 -78 -18 -3 -11 -18 -22 -33
-26 -53 -11 -92 -34 -112 -66 -19 -31 -20 -51 -20 -395 0 -236 4 -363 10 -363
6 0 10 129 10 366 l0 366 34 34 c37 37 27 35 211 35 157 0 158 1 189 64 44 90
28 85 282 85 124 0 233 -4 242 -9 10 -5 30 -36 46 -69 34 -71 28 -69 226 -71
223 -3 211 25 211 -467 0 -214 0 -406 -1 -427 l0 -38 -402 3 -403 3 -58 27
c-115 54 -178 123 -216 236 -74 218 66 450 296 492 207 37 419 -120 440 -326
3 -30 10 -57 16 -61 22 -13 -1 117 -32 182 -159 340 -653 290 -747 -75 -56
-220 90 -447 315 -490 30 -6 219 -10 432 -10 l379 0 0 435 c0 480 1 472 -62
517 -31 21 -44 23 -173 24 -77 1 -149 2 -161 3 -15 1 -28 16 -45 53 -13 28
-30 57 -37 65 -10 10 -69 13 -262 13 l-249 0 -18 -24z m-173 -95 c0 -13 -29
-18 -77 -13 -64 6 -52 22 17 22 33 0 60 -4 60 -9z"/>
<path d="M2320 3310 c0 -6 77 -10 210 -10 133 0 210 4 210 10 0 6 -77 10 -210
10 -133 0 -210 -4 -210 -10z"/>
<path d="M1927 3094 c-4 -4 -7 -31 -7 -60 0 -61 4 -64 99 -64 89 0 103 11 99
75 l-3 50 -90 3 c-50 1 -94 0 -98 -4z m171 -57 l-3 -42 -77 -3 -78 -3 0 45 c0
24 4 46 10 48 5 2 41 1 80 0 l71 -4 -3 -41z"/>
<path d="M2425 2963 c-66 -24 -117 -64 -155 -121 -103 -156 -53 -367 108 -455
134 -73 290 -47 387 65 60 69 79 121 79 213 0 72 -4 87 -34 143 -34 64 -85
114 -149 147 -51 26 -174 30 -236 8z m239 -34 c57 -28 111 -85 139 -148 31
-67 30 -180 -1 -241 -57 -109 -157 -173 -272 -174 -235 0 -376 263 -246 461
32 50 106 106 160 123 54 16 167 6 220 -21z"/>
<path d="M2463 2858 c-39 -13 -101 -63 -90 -74 4 -4 17 2 30 14 26 25 88 52
117 52 11 0 20 5 20 10 0 12 -35 11 -77 -2z"/>
<path d="M2342 2738 c-18 -58 -20 -78 -11 -83 4 -3 11 7 15 22 3 15 10 40 14
55 5 15 5 30 0 33 -5 3 -13 -9 -18 -27z"/>
<path d="M2711 2623 c-6 -27 -22 -60 -34 -74 -30 -36 -86 -69 -119 -69 -15 0
-30 -4 -33 -10 -8 -13 46 -13 82 1 48 18 102 79 118 133 17 57 18 66 7 66 -5
0 -14 -21 -21 -47z"/>
<path d="M668 1953 c-29 -4 -40 -33 -13 -33 9 0 15 -9 15 -25 0 -22 -4 -25
-36 -25 -47 0 -94 -45 -94 -90 0 -33 15 -70 34 -82 18 -12 74 -9 79 5 4 9 7 9
14 -1 10 -14 73 -6 73 9 0 5 -4 9 -10 9 -6 0 -10 47 -10 120 0 90 -3 120 -12
119 -7 -1 -25 -4 -40 -6z m-3 -168 c0 -49 -1 -50 -30 -50 -28 0 -30 3 -33 38
-4 44 12 69 42 65 18 -3 21 -10 21 -53z"/>
<path d="M1095 1940 c-18 -19 -18 -22 -2 -37 16 -16 18 -16 37 3 20 20 20 21
2 37 -18 16 -20 16 -37 -3z"/>
<path d="M3581 1951 c-28 -8 -41 -31 -17 -31 10 0 16 -9 16 -25 0 -20 -5 -25
-25 -25 -37 0 -82 -26 -91 -52 -21 -68 7 -128 61 -128 18 0 37 5 41 11 5 8 9
8 14 -1 5 -7 20 -9 44 -5 38 8 46 19 21 29 -12 4 -15 27 -15 121 0 122 1 120
-49 106z m-1 -166 c0 -51 -2 -55 -23 -55 -30 0 -47 18 -47 48 0 37 18 62 45
62 24 0 25 -3 25 -55z"/>
<path d="M786 1933 c-4 -9 0 -23 9 -32 13 -14 17 -14 32 1 13 14 14 20 3 32
-16 21 -36 20 -44 -1z"/>
<path d="M368 1928 c-8 -7 -30 -53 -48 -103 -18 -49 -39 -95 -46 -101 -27 -21
-15 -34 31 -34 48 0 55 6 29 25 -11 8 -14 19 -10 33 6 18 15 22 50 22 36 0 45
-4 55 -26 10 -23 9 -26 -9 -31 -40 -11 -19 -23 40 -23 60 0 75 11 46 34 -7 6
-30 57 -51 114 -39 104 -52 118 -87 90z m16 -126 c-35 -5 -38 1 -23 45 l12 38
18 -40 18 -40 -25 -3z"/>
<path d="M2590 1931 c0 -5 7 -11 15 -15 12 -4 15 -25 15 -100 0 -74 -3 -95
-15 -100 -34 -13 -12 -26 45 -26 33 0 60 4 60 10 0 6 -7 10 -15 10 -11 0 -15
11 -15 40 0 38 2 40 30 40 17 0 30 -4 30 -10 0 -5 5 -10 10 -10 6 0 10 16 10
35 0 34 -12 46 -25 25 -3 -5 -17 -10 -31 -10 -22 0 -24 4 -24 45 l0 45 39 0
c30 0 40 -4 44 -20 8 -33 27 -23 27 15 l0 35 -100 0 c-55 0 -100 -4 -100 -9z"/>
<path d="M4024 1930 c-83 -33 -96 -175 -20 -221 41 -25 117 -26 139 -1 19 20
23 37 7 27 -6 -3 -29 -7 -52 -7 -73 -1 -110 70 -73 141 24 48 78 56 97 16 17
-37 28 -31 28 15 l0 40 -52 -1 c-29 0 -63 -4 -74 -9z"/>
<path d="M3059 1888 c-7 -13 -19 -29 -28 -35 -11 -9 -13 -15 -5 -20 6 -5 13
-34 16 -66 3 -35 10 -62 19 -68 20 -13 63 -11 77 3 18 18 15 25 -10 24 -21 -1
-23 4 -26 52 -3 50 -2 52 22 52 16 0 26 6 26 15 0 9 -9 15 -25 15 -20 0 -25 5
-25 25 0 32 -25 33 -41 3z"/>
<path d="M793 1859 c-30 -9 -46 -29 -23 -29 6 0 10 -24 10 -54 0 -30 -4 -58
-10 -61 -23 -14 -7 -25 40 -25 28 0 50 5 50 10 0 6 -4 10 -10 10 -6 0 -10 33
-10 80 0 44 -3 80 -7 79 -5 0 -23 -5 -40 -10z"/>
<path d="M929 1855 c-53 -29 -62 -118 -16 -150 31 -22 90 -19 112 5 18 20 17
20 -21 20 -47 0 -64 14 -64 51 0 52 53 80 64 34 10 -39 28 -30 24 13 -3 35 -5
37 -38 39 -19 2 -47 -4 -61 -12z"/>
<path d="M1093 1859 c-34 -10 -45 -29 -18 -29 11 0 15 -13 15 -54 0 -39 -4
-55 -15 -60 -32 -12 -13 -26 35 -26 28 0 50 5 50 10 0 6 -4 10 -10 10 -6 0
-10 33 -10 80 0 44 -3 80 -7 79 -5 0 -23 -5 -40 -10z"/>
<path d="M1228 1854 c-32 -17 -48 -66 -36 -109 11 -40 33 -55 84 -55 35 0 47
5 68 31 71 83 -19 186 -116 133z m71 -28 c7 -8 11 -34 9 -58 -2 -33 -7 -44
-22 -47 -37 -7 -59 55 -36 100 13 23 33 25 49 5z"/>
<path d="M1423 1859 c-30 -9 -46 -29 -23 -29 6 0 10 -24 10 -54 0 -30 -4 -58
-10 -61 -23 -14 -7 -25 40 -25 28 0 50 5 50 10 0 6 -5 10 -10 10 -7 0 -10 22
-8 58 3 53 5 57 28 57 23 0 25 -4 28 -52 2 -32 -1 -53 -7 -53 -6 0 -11 -7 -11
-15 0 -11 12 -15 50 -15 28 0 50 5 50 10 0 6 -4 10 -9 10 -4 0 -11 30 -14 67
-4 48 -10 70 -23 80 -24 18 -59 16 -78 -3 -15 -14 -16 -14 -16 0 0 18 -2 18
-47 5z"/>
<path d="M1675 1858 c-33 -19 -44 -41 -45 -85 0 -33 5 -46 26 -62 36 -28 104
-29 122 -1 11 19 10 20 -26 20 -39 0 -62 14 -62 37 0 9 16 13 50 13 49 0 50 1
50 29 0 51 -65 78 -115 49z m63 -41 c3 -12 -3 -17 -22 -17 -25 0 -35 18 -19
34 12 12 38 2 41 -17z"/>
<path d="M1932 1858 c-28 -14 -40 -55 -21 -74 8 -7 32 -19 53 -27 44 -15 57
-33 29 -39 -30 -6 -63 3 -63 18 0 8 -7 14 -15 14 -20 0 -20 -46 1 -54 31 -12
102 -6 118 10 37 36 10 83 -56 99 -16 4 -28 13 -28 21 0 19 56 18 64 -1 9 -26
27 -16 24 13 -3 24 -7 27 -43 29 -22 1 -50 -3 -63 -9z"/>
<path d="M2103 1859 c-30 -9 -46 -29 -24 -29 5 0 11 -24 13 -54 3 -30 10 -62
17 -70 18 -22 77 -21 90 2 10 16 10 16 11 -1 0 -15 6 -17 38 -11 45 8 51 12
32 24 -10 6 -13 26 -11 69 1 33 0 65 -3 70 -7 11 -86 -7 -86 -20 0 -5 7 -9 15
-9 11 0 15 -12 15 -51 0 -49 -1 -50 -27 -47 -27 3 -28 5 -31 71 -2 37 -6 67
-10 66 -4 0 -22 -5 -39 -10z"/>
<path d="M2342 1854 c-34 -23 -27 -32 25 -31 37 2 48 -2 51 -15 3 -14 -7 -18
-47 -24 -44 -6 -52 -10 -58 -32 -9 -38 8 -57 52 -57 44 0 56 16 23 30 -32 14
-29 39 5 43 25 3 27 1 25 -25 -1 -16 1 -34 6 -41 9 -14 45 -16 66 -2 13 9 13
12 -2 21 -14 7 -18 23 -18 64 0 35 -5 59 -16 69 -20 20 -83 21 -112 0z"/>
<path d="M2852 1845 c-27 -22 -32 -34 -32 -69 0 -57 30 -86 89 -86 57 0 91 33
91 88 0 53 -25 82 -76 89 -33 4 -45 1 -72 -22z m86 -37 c13 -48 1 -83 -28 -83
-31 0 -47 46 -31 88 15 39 48 36 59 -5z"/>
<path d="M3220 1857 c-54 -27 -64 -119 -17 -152 33 -23 91 -19 123 8 39 34 40
100 1 133 -31 26 -69 30 -107 11z m70 -36 c23 -44 9 -101 -25 -101 -26 0 -35
17 -35 64 0 52 39 76 60 37z"/>
<path d="M3709 1841 c-38 -38 -40 -91 -4 -126 32 -33 109 -36 125 -5 10 18 8
20 -28 20 -39 0 -62 14 -62 37 0 9 17 13 56 13 l56 0 -6 28 c-16 65 -87 82
-137 33z m79 -13 c19 -19 14 -28 -18 -28 -32 0 -33 1 -24 24 7 19 25 21 42 4z"/>
<path d="M4222 1854 c-33 -23 -27 -36 13 -28 34 6 65 -7 65 -26 0 -5 -24 -12
-52 -17 -48 -7 -53 -11 -56 -36 -2 -16 2 -35 9 -43 14 -17 60 -19 76 -3 8 8
16 7 30 -2 12 -7 31 -9 46 -5 29 7 37 26 12 26 -12 0 -15 13 -15 59 0 51 -3
62 -22 75 -12 9 -36 16 -53 16 -17 0 -41 -7 -53 -16z m76 -106 c4 -19 -35 -35
-50 -20 -6 6 -8 18 -4 27 8 21 50 16 54 -7z"/>
<path d="M4423 1859 c-30 -9 -46 -29 -23 -29 6 0 10 -40 10 -100 0 -60 -4
-100 -10 -100 -5 0 -10 -6 -10 -14 0 -18 101 -17 108 2 2 6 -3 12 -12 12 -11
0 -16 9 -16 30 0 28 3 30 35 30 51 0 85 36 85 90 0 68 -64 114 -104 74 -15
-14 -16 -14 -16 0 0 18 -2 18 -47 5z m110 -59 c13 -38 -7 -80 -38 -80 -23 0
-25 3 -25 48 0 27 3 52 7 56 15 14 48 0 56 -24z"/>
<path d="M4652 1854 c-34 -24 -27 -35 19 -28 30 5 43 3 50 -7 15 -24 10 -28
-41 -35 -43 -6 -51 -10 -57 -32 -3 -14 -1 -32 4 -41 13 -20 60 -26 79 -10 11
9 18 9 26 1 17 -17 53 -15 68 3 10 12 10 15 -4 15 -13 0 -16 11 -16 59 0 51
-3 62 -22 75 -12 9 -36 16 -53 16 -17 0 -41 -7 -53 -16z m76 -106 c4 -19 -35
-35 -50 -20 -6 6 -8 18 -4 27 8 21 50 16 54 -7z"/>
</g>
</svg>
