<svg width="143" height="145" viewBox="0 0 143 145" fill="none" xmlns="http://www.w3.org/2000/svg">
<path fill-rule="evenodd" clip-rule="evenodd" d="M71.5 145C110.988 145 143 112.541 143 72.5C143 32.4594 110.988 0 71.5 0C32.0116 0 0 32.4594 0 72.5C0 112.541 32.0116 145 71.5 145ZM71.5 140.199C108.265 140.199 138.069 109.889 138.069 72.5C138.069 35.1111 108.265 4.80132 71.5 4.80132C34.735 4.80132 4.93103 35.1111 4.93103 72.5C4.93103 109.889 34.735 140.199 71.5 140.199ZM47 65H47.5H50V50.4211V49H50.058C50.8823 38.9375 60.3911 31 72 31C83.6089 31 93.1177 38.9375 93.942 49H94V50.4211V65H96.5H97V65.0145C101.296 65.2637 104.736 68.7038 104.986 73H105V73.5V104H104.986C104.995 104.165 105 104.332 105 104.5C105 109.027 101.462 112.727 97 112.986V113H96.5H47.5H47V112.986C42.5383 112.727 39 109.027 39 104.5C39 104.332 39.0049 104.165 39.0145 104H39V73.5V73H39.0145C39.2637 68.7038 42.7038 65.2637 47 65.0145V65ZM91 65V53.2632V51.8421H90.9499C90.238 41.7796 82.0259 33.8421 72 33.8421C61.9741 33.8421 53.762 41.7796 53.0501 51.8421H53V53.2632V65H91ZM49.2727 68H49.7273H94.2727H94.7273V68.0127C98.6329 68.2307 101.76 71.2408 101.987 75H102V75.4375V102.125H101.987C101.996 102.27 102 102.416 102 102.562C102 106.523 98.7834 109.761 94.7273 109.987V110H94.2727H49.7273H49.2727V109.987C45.2166 109.761 42 106.523 42 102.562C42 102.416 42.0044 102.27 42.0131 102.125H42V75.4375V75H42.0131C42.2397 71.2408 45.367 68.2307 49.2727 68.0127V68Z" fill="#102542"/>
</svg>
