<svg width="1104" height="298" viewBox="0 0 1104 298" fill="none" xmlns="http://www.w3.org/2000/svg">
<path d="M0 32H1104V266H0V32Z" fill="white"/>
<path fill-rule="evenodd" clip-rule="evenodd" d="M504.444 89.4596C499.873 90.5324 496.064 93.7508 494.424 97.8632C493.017 101.201 493.017 158.655 494.424 161.993C495.537 164.794 498.35 167.774 501.397 169.443L503.741 170.754H553.258H602.775L605.881 168.966C609.338 167.059 611.917 163.781 612.971 160.026C613.968 156.271 613.792 102.333 612.796 99.3532C611.331 95.3004 608.987 92.4992 605.471 90.7708L602.189 89.102L554.43 88.9828C527.591 88.9232 505.675 89.1616 504.444 89.4596ZM604.592 91.6052C608.166 93.572 611.096 97.3268 611.858 100.962C612.327 103.048 612.444 113.002 612.327 132.014C612.32 133.163 612.314 134.268 612.309 135.331C612.192 156.78 612.17 160.882 610.21 163.575C609.747 164.212 609.176 164.769 608.469 165.459L608.469 165.46L608.468 165.46L608.468 165.46L608.461 165.467L608.458 165.47L608.457 165.47C608.29 165.634 608.115 165.805 607.932 165.986C607.848 166.069 607.766 166.15 607.686 166.229L607.686 166.23L607.686 166.23L607.685 166.231C607.249 166.664 606.864 167.046 606.443 167.382C603.34 169.861 598.256 169.861 555.718 169.86H555.718H555.718H555.718H555.717H555.717H555.717H555.717H555.717H555.717H555.717H555.716H555.716H555.716H555.716H555.716H555.716H555.716H555.715H555.715H555.715H555.715H555.715H555.715H555.714H555.714H555.714H555.714H555.714L553.434 169.86C521.438 169.86 506.085 169.681 504.327 169.204C501.221 168.43 497.354 165.211 495.83 162.052C494.717 159.907 494.658 158.417 494.658 129.928C494.658 101.737 494.717 99.9492 495.771 97.8632C497.412 94.6448 500.049 92.38 503.565 91.1284C506.495 90.1152 509.367 90.0556 554.43 90.1748L602.189 90.294L604.592 91.6052ZM537.612 98.5784C537.026 99.3532 536.03 101.082 535.444 102.452C534.799 103.764 534.037 104.896 533.686 104.956C529.056 105.254 528.705 105.194 528.529 104.002C528.353 102.929 527.826 102.81 524.134 102.631C520.383 102.452 519.915 102.572 519.563 103.704C519.387 104.36 518.508 105.015 517.629 105.254C514.523 105.909 512.238 107.28 511.066 109.187C509.953 111.035 509.894 112.227 509.894 132.729C509.894 146.795 510.128 154.364 510.48 154.364C510.832 154.364 511.066 146.676 511.066 132.55V110.737L513.058 108.71C513.148 108.619 513.234 108.532 513.315 108.448L513.317 108.446C513.768 107.982 514.106 107.636 514.5 107.378C515.66 106.619 517.318 106.62 523.849 106.624H523.85H523.851H523.853H523.855H523.856H523.858H523.86H523.862H523.864H523.866H523.868H523.87H523.873H523.875H523.878H523.88H523.883H523.886H523.889C524.373 106.624 524.884 106.624 525.423 106.624C534.623 106.624 534.682 106.565 536.498 102.81C536.627 102.543 536.746 102.29 536.859 102.051L536.861 102.047L536.864 102.042L536.864 102.041L536.866 102.036L536.867 102.035L536.867 102.035C537.536 100.619 537.986 99.6686 538.71 99.0311C540.189 97.7305 542.814 97.7335 550.796 97.7424C551.496 97.7432 552.238 97.744 553.024 97.744C560.29 97.744 566.677 97.9824 567.205 98.2804C567.791 98.5784 568.963 100.426 569.9 102.393C569.949 102.497 569.997 102.598 570.043 102.696L570.045 102.702C570.635 103.959 571.03 104.802 571.669 105.37C572.966 106.523 575.267 106.546 582.239 106.615L583.144 106.624C583.846 106.634 584.508 106.638 585.132 106.642L585.133 106.642C588.958 106.667 591.377 106.683 592.906 107.857C595.539 109.88 595.531 115.338 595.512 130.192V130.192V130.207V130.223V130.239L595.512 130.257C595.51 131.581 595.509 132.98 595.509 134.458C595.509 147.212 595.509 158.655 595.45 159.907V162.172L571.893 161.993L548.277 161.814L544.878 160.205C538.139 156.986 534.447 152.874 532.221 146.139C527.884 133.146 536.088 119.319 549.566 116.816C561.696 114.611 574.12 123.968 575.35 136.246C575.526 138.034 575.936 139.643 576.288 139.881C577.577 140.656 576.229 132.908 574.413 129.034C565.095 108.77 536.147 111.75 530.638 133.504C527.357 146.616 535.912 160.145 549.097 162.708C550.855 163.066 561.931 163.304 574.413 163.304H596.622V137.378L596.622 136.058C596.623 113.925 596.623 110.03 594.681 107.938C594.266 107.491 593.763 107.126 593.152 106.683L592.989 106.565C591.172 105.313 590.41 105.194 582.851 105.134C578.339 105.075 574.12 105.015 573.416 104.956C572.537 104.896 571.776 104.002 570.779 101.797C570.018 100.128 569.021 98.3996 568.611 97.9228C568.025 97.3268 564.568 97.148 553.258 97.148H538.667L537.612 98.5784ZM527.474 104.24C527.474 105.015 525.775 105.313 522.962 105.015C519.211 104.658 519.915 103.704 523.958 103.704C525.892 103.704 527.474 103.942 527.474 104.24ZM553.258 101.32C545.464 101.32 540.952 101.082 540.952 100.724C540.952 100.366 545.464 100.128 553.258 100.128C561.052 100.128 565.564 100.366 565.564 100.724C565.564 101.082 561.052 101.32 553.258 101.32ZM517.922 113.598C517.688 113.836 517.512 115.445 517.512 117.174C517.512 120.809 517.746 120.988 523.313 120.988C528.529 120.988 529.349 120.332 529.115 116.518L528.939 113.538L523.665 113.359C520.735 113.3 518.157 113.359 517.922 113.598ZM527.943 116.995L527.767 119.498L523.255 119.677L518.684 119.856V117.174C518.684 115.743 518.918 114.432 519.27 114.313C519.553 114.198 521.532 114.249 523.727 114.307L523.958 114.313L528.119 114.551L527.943 116.995ZM538.022 128.617C540.249 125.22 543.237 122.836 547.105 121.405C550.738 120.094 557.946 120.332 560.935 121.882C564.685 123.849 567.674 126.829 569.666 130.643C571.424 133.981 571.658 134.875 571.658 139.166C571.658 144.649 570.545 147.748 567.029 151.861C561.345 158.536 552.203 160.086 544.351 155.735C534.916 150.49 531.986 137.914 538.022 128.617ZM569.256 132.252C567.615 128.498 564.451 125.1 561.11 123.432C558.005 121.822 551.383 121.226 548.218 122.18C545.054 123.193 540.718 126.531 538.842 129.511C531.224 141.312 539.487 156.986 553.258 156.986C559.997 156.927 565.857 153.112 569.197 146.616C571.014 142.98 571.072 136.246 569.256 132.252ZM549.332 127.663C547.046 128.438 543.413 131.418 544.058 132.074C544.292 132.312 545.054 131.954 545.816 131.239C547.339 129.749 550.973 128.14 552.672 128.14C553.317 128.14 553.844 127.842 553.844 127.544C553.844 126.829 551.793 126.888 549.332 127.663ZM541.597 139.762C541.069 139.464 541.186 138.272 542.241 134.815C542.534 133.742 543.003 133.027 543.296 133.206C543.589 133.385 543.589 134.279 543.296 135.173C543.252 135.339 543.203 135.526 543.149 135.726C542.917 136.601 542.619 137.723 542.476 138.451C542.241 139.345 541.831 139.941 541.597 139.762ZM563.865 141.669C563.513 143.278 562.575 145.245 561.872 146.08C560.114 148.225 556.833 150.192 554.899 150.192C554.02 150.192 553.141 150.43 552.965 150.788C552.496 151.563 555.661 151.563 557.77 150.728C560.583 149.656 563.747 146.02 564.685 142.802C565.681 139.404 565.74 138.868 565.095 138.868C564.802 138.868 564.275 140.12 563.865 141.669ZM443.383 183.568C441.801 183.568 442.445 181.84 444.145 181.601C444.721 181.523 445.374 181.419 445.87 181.34C446.13 181.299 446.348 181.264 446.489 181.244C447.016 181.184 447.192 182.972 447.192 188.336C447.192 192.687 447.426 195.488 447.778 195.488C448.13 195.488 448.364 195.726 448.364 196.024C448.364 196.918 444.672 197.395 444.086 196.561C443.676 195.965 443.5 195.965 443.266 196.501C442.973 197.336 439.691 197.514 438.636 196.799C437.523 196.084 436.644 193.879 436.644 191.912C436.644 189.23 439.398 186.548 442.152 186.548C444.028 186.548 444.262 186.369 444.262 185.058C444.262 184.104 443.91 183.568 443.383 183.568ZM442.211 194.594C443.91 194.594 443.969 194.534 443.969 191.614C443.969 189.051 443.793 188.634 442.738 188.455C440.98 188.217 440.043 189.707 440.277 192.329C440.453 194.415 440.57 194.594 442.211 194.594ZM469.167 182.376C468.112 183.508 468.112 183.687 469.05 184.581C469.987 185.535 470.105 185.535 471.218 184.402C472.39 183.21 472.39 183.151 471.335 182.197C470.28 181.244 470.163 181.244 469.167 182.376ZM613.85 183.568C612.444 183.568 613.206 182.197 614.847 181.72L615.005 181.675C616.011 181.388 616.644 181.207 617.043 181.435C617.719 181.823 617.719 183.391 617.718 187.619L617.718 188.038C617.718 193.64 617.894 195.011 618.597 195.25C620.062 195.846 619.593 196.501 617.366 196.978C615.96 197.216 615.081 197.097 614.788 196.68C614.495 196.144 614.261 196.144 613.968 196.62C613.733 196.978 612.62 197.276 611.565 197.276C608.401 197.276 606.76 193.7 607.99 189.647C608.518 188.098 611.155 186.548 613.323 186.548C614.495 186.548 614.788 186.25 614.788 185.058C614.788 184.104 614.436 183.568 613.85 183.568ZM613.44 194.892C614.671 194.892 614.788 194.654 614.788 191.614C614.788 188.515 614.729 188.336 613.323 188.336C611.741 188.336 610.686 189.826 610.686 192.031C610.686 193.819 611.682 194.892 613.44 194.892ZM451.06 182.793C450.825 183.33 451.06 184.164 451.587 184.7C452.349 185.535 452.583 185.535 453.462 184.641C454.224 183.806 454.283 183.449 453.638 182.734C452.7 181.482 451.528 181.542 451.06 182.793ZM423.752 189.23C424.807 186.25 426.096 183.508 426.565 183.091C428.616 181.422 429.378 182.257 431.663 188.455C432.894 191.852 434.241 194.892 434.652 195.25C436.351 196.62 435.472 197.276 431.956 197.276C428.499 197.276 427.268 196.561 429.612 195.905C430.667 195.607 430.725 195.428 430.139 194.058C429.553 192.746 429.026 192.508 426.916 192.508C424.865 192.508 424.338 192.746 423.986 193.819C423.752 194.654 423.928 195.309 424.572 195.786C426.096 196.918 425.686 197.276 422.873 197.276C420.177 197.276 419.474 196.501 421.056 195.25C421.467 194.892 422.697 192.15 423.752 189.23ZM426.155 187.919C425.276 190.541 425.451 190.899 427.502 190.601L428.967 190.422L427.913 188.038L426.858 185.654L426.155 187.919ZM556.774 182.912C556.774 183.21 557.184 183.568 557.653 183.806C558.356 184.045 558.532 185.296 558.532 189.766C558.532 194.177 558.356 195.428 557.653 195.726C555.661 196.501 556.95 197.276 560.29 197.276C562.224 197.276 563.806 197.038 563.806 196.68C563.806 196.322 563.396 196.084 562.927 196.084C562.282 196.084 562.048 195.428 562.048 193.7C562.048 191.435 562.165 191.316 563.806 191.316C564.802 191.316 565.564 191.554 565.564 191.912C565.564 192.21 565.857 192.508 566.15 192.508C566.502 192.508 566.736 191.554 566.736 190.422C566.736 188.396 566.033 187.68 565.271 188.932C565.095 189.23 564.275 189.528 563.454 189.528C562.165 189.528 562.048 189.29 562.048 186.846V184.164H564.333C566.091 184.164 566.677 184.402 566.912 185.356C567.381 187.323 568.494 186.727 568.494 184.462V182.376H562.634C559.411 182.376 556.774 182.614 556.774 182.912ZM639.634 196.144C635.181 193.402 635.943 184.939 640.806 182.972C641.451 182.674 643.443 182.436 645.143 182.436L648.19 182.376V184.76C648.19 187.502 647.545 187.859 646.549 185.654C645.436 183.27 642.271 183.747 640.865 186.608C638.697 190.839 640.865 195.071 645.143 195.011C646.491 195.011 647.838 194.773 648.19 194.594C649.128 193.998 648.893 195.011 647.78 196.203C646.491 197.693 642.037 197.634 639.634 196.144ZM584.257 185.475C583.847 186.25 583.144 187.204 582.617 187.561C581.972 188.098 581.855 188.455 582.324 188.753C582.675 189.051 583.085 190.78 583.261 192.687C583.437 194.773 583.847 196.382 584.375 196.74C585.547 197.514 588.066 197.395 588.887 196.561C589.942 195.488 589.766 195.071 588.301 195.13C587.07 195.19 586.953 194.892 586.777 192.031C586.601 189.051 586.66 188.932 588.066 188.932C589.004 188.932 589.59 188.574 589.59 188.038C589.59 187.502 589.063 187.144 588.125 187.144C586.953 187.144 586.66 186.846 586.66 185.654C586.66 183.747 585.195 183.687 584.257 185.475ZM450.122 188.932C448.774 188.932 449.712 187.74 451.47 187.204C452.466 186.906 453.521 186.608 453.814 186.608C454.048 186.548 454.224 188.694 454.224 191.316C454.224 194.117 454.458 196.084 454.81 196.084C455.162 196.084 455.396 196.322 455.396 196.68C455.396 196.978 454.107 197.276 452.466 197.276C449.712 197.276 448.774 196.62 450.122 195.786C450.474 195.607 450.708 193.938 450.708 192.15C450.708 190.362 450.474 188.932 450.122 188.932ZM459.439 187.442C456.334 189.17 455.806 194.475 458.502 196.382C460.318 197.693 463.776 197.514 465.065 196.084C466.12 194.892 466.061 194.892 463.834 194.892C461.08 194.892 460.084 194.058 460.084 191.852C460.084 188.753 463.19 187.084 463.834 189.826C464.42 192.15 465.475 191.614 465.241 189.051C465.065 186.965 464.948 186.846 463.014 186.727C461.901 186.608 460.26 186.965 459.439 187.442ZM467.995 188.932C466.413 188.932 467.057 187.8 469.05 187.204C470.046 186.906 471.101 186.608 471.394 186.608C471.628 186.548 471.804 188.694 471.804 191.316C471.804 194.117 472.038 196.084 472.39 196.084C472.742 196.084 472.976 196.322 472.976 196.68C472.976 196.978 471.687 197.276 470.046 197.276C467.233 197.276 466.12 196.442 467.995 195.726C468.64 195.428 468.874 194.475 468.874 192.15C468.874 189.707 468.64 188.932 467.995 188.932ZM476.961 187.502C475.086 188.515 474.148 191.435 474.851 193.998C475.496 196.382 476.785 197.276 479.774 197.276C481.825 197.276 482.528 196.978 483.758 195.428C487.919 190.482 482.645 184.343 476.961 187.502ZM481.121 189.17C481.532 189.647 481.766 191.197 481.649 192.627C481.532 194.594 481.239 195.25 480.36 195.428C478.191 195.846 476.902 192.15 478.25 189.468C479.012 188.098 480.184 187.978 481.121 189.17ZM487.04 188.932C485.692 188.932 486.63 187.74 488.388 187.204C491.025 186.429 491.142 186.429 491.142 187.502C491.142 188.336 491.201 188.336 492.08 187.502C493.193 186.369 495.244 186.25 496.65 187.323C497.412 187.919 497.764 189.23 497.998 192.091C498.174 194.296 498.584 196.084 498.819 196.084C499.112 196.084 499.346 196.322 499.346 196.68C499.346 196.978 498.057 197.276 496.416 197.276C494.189 197.276 493.486 197.038 493.486 196.382C493.486 195.905 493.779 195.488 494.131 195.488C494.482 195.488 494.658 194.236 494.541 192.329C494.365 189.468 494.248 189.23 492.9 189.23C491.552 189.23 491.435 189.468 491.259 192.627C491.142 194.773 491.318 196.084 491.728 196.084C492.021 196.084 492.314 196.322 492.314 196.68C492.314 196.978 491.025 197.276 489.384 197.276C486.63 197.276 485.692 196.62 487.04 195.786C487.392 195.607 487.626 193.938 487.626 192.15C487.626 190.362 487.392 188.932 487.04 188.932ZM503.155 187.263C501.221 188.396 500.577 189.707 500.518 192.329C500.518 194.296 500.811 195.071 502.042 196.024C504.151 197.693 508.136 197.753 509.191 196.084C509.835 194.952 509.777 194.892 507.667 194.892C505.382 194.892 504.034 194.058 504.034 192.687C504.034 192.15 504.972 191.912 506.964 191.912C509.835 191.912 509.894 191.852 509.894 190.184C509.894 187.144 506.085 185.535 503.155 187.263ZM506.847 189.707C507.023 190.422 506.671 190.72 505.558 190.72C504.093 190.72 503.507 189.647 504.444 188.694C505.147 187.978 506.671 188.574 506.847 189.707ZM516.985 191.674C515.871 190.541 516.574 188.098 518.215 187.263C518.977 186.906 520.618 186.667 521.907 186.727C524.017 186.846 524.251 187.025 524.427 188.455C524.603 190.184 523.548 190.78 523.02 189.23C522.552 188.098 519.27 188.038 519.27 189.17C519.27 189.647 519.973 190.184 520.911 190.422C524.778 191.376 526.361 194.177 524.192 196.322C523.255 197.276 519.094 197.634 517.278 196.918C516.047 196.442 516.047 193.7 517.219 193.7C517.688 193.7 518.098 194.058 518.098 194.534C518.098 195.428 520.032 195.965 521.79 195.607C523.431 195.25 522.669 194.177 520.09 193.283C518.86 192.806 517.453 192.091 516.985 191.674ZM528.236 187.204C526.478 187.74 525.54 188.932 526.829 188.932C527.122 188.932 527.474 190.362 527.591 192.15C527.767 193.938 528.177 195.846 528.587 196.322C529.642 197.634 533.1 197.574 533.861 196.203C534.162 195.714 534.308 195.476 534.388 195.497C534.463 195.516 534.477 195.769 534.506 196.263C534.506 197.157 534.858 197.276 536.733 196.918C539.37 196.442 539.721 196.203 538.608 195.488C538.022 195.13 537.846 193.938 537.963 191.376C538.022 189.409 537.963 187.502 537.788 187.204C537.377 186.548 532.748 187.621 532.748 188.396C532.748 188.694 533.158 188.932 533.627 188.932C534.272 188.932 534.506 189.647 534.506 191.972C534.506 194.892 534.447 194.952 532.924 194.773C531.342 194.594 531.283 194.475 531.107 190.541C530.99 188.336 530.756 186.548 530.521 186.608C530.287 186.608 529.232 186.906 528.236 187.204ZM543.706 189.349C540.659 189.409 540.249 188.872 542.241 187.502C543.941 186.25 547.632 186.31 548.804 187.502C549.449 188.098 549.742 189.528 549.742 191.614C549.742 194.058 549.976 195.011 550.797 195.428C551.676 195.965 551.676 196.144 550.914 196.68C549.683 197.514 547.574 197.395 547.046 196.561C546.753 196.144 546.636 195.071 546.695 194.117C546.812 192.568 546.695 192.448 545.23 192.627C543.237 192.866 543.062 194.356 544.937 195.19C546.871 196.024 546.167 196.978 543.589 196.978C541.011 196.978 540.014 195.846 540.542 193.581C540.893 192.27 541.362 192.031 543.941 191.674C546.285 191.316 546.871 191.078 546.695 190.243C546.519 189.468 545.874 189.23 543.706 189.349ZM572.127 188.038C570.545 189.349 570.252 190.064 570.252 192.15C570.252 195.548 572.01 197.276 575.467 197.276C578.808 197.276 580.8 195.309 580.8 192.031C580.8 188.872 579.335 187.144 576.346 186.727C574.413 186.488 573.709 186.667 572.127 188.038ZM577.167 190.243C577.929 193.104 577.225 195.19 575.526 195.19C573.709 195.19 572.772 192.448 573.709 189.945C574.588 187.621 576.522 187.8 577.167 190.243ZM592.696 196.382C589.942 194.415 590.528 188.932 593.692 187.323C595.919 186.19 598.146 186.429 599.962 187.978C602.248 189.945 602.189 193.879 599.904 195.905C598.028 197.514 594.63 197.753 592.696 196.382ZM596.329 195.488C598.321 195.488 599.142 192.091 597.794 189.468C596.563 187.144 594.278 188.574 594.278 191.674C594.278 194.475 594.805 195.488 596.329 195.488ZM622.347 188.276C620.121 190.541 620.003 193.7 622.113 195.786C623.988 197.753 628.5 197.932 629.438 196.084C630.024 195.011 629.907 194.892 627.797 194.892C625.512 194.892 624.164 194.058 624.164 192.687C624.164 192.15 625.16 191.912 627.446 191.912H630.727L630.376 190.243C629.438 186.369 625.277 185.356 622.347 188.276ZM626.977 189.051C628.09 190.184 627.797 190.72 625.922 190.72C624.047 190.72 623.988 190.66 624.516 189.29C624.926 188.157 625.981 188.038 626.977 189.051ZM653.171 189.17C650.827 189.647 650.475 188.872 652.409 187.502C653.112 186.965 654.519 186.548 655.515 186.548C656.511 186.548 657.918 186.965 658.621 187.502C659.734 188.276 659.91 188.932 659.91 191.972C659.91 194.713 660.086 195.488 660.789 195.488C662.254 195.488 661.785 196.62 660.086 197.038C659.207 197.276 658.093 197.157 657.39 196.74C656.57 196.203 656.101 196.144 655.632 196.62C654.695 197.574 651.999 197.455 651.179 196.442C650.768 195.965 650.534 194.832 650.651 193.879C650.827 192.389 651.12 192.15 653.933 191.733C655.574 191.435 656.98 191.018 656.98 190.72C656.98 189.588 655.163 188.813 653.171 189.17ZM653.933 195.011C654.812 195.905 657.097 194.952 656.863 193.819C656.628 192.448 654.167 192.15 653.698 193.402C653.464 193.938 653.581 194.654 653.933 195.011ZM664.188 187.204C662.43 187.74 661.492 188.932 662.84 188.932C663.192 188.932 663.426 191.316 663.426 194.892C663.426 198.468 663.192 200.852 662.84 200.852C662.547 200.852 662.254 201.21 662.254 201.686C662.254 202.759 668.173 202.7 668.583 201.567C668.7 201.21 668.407 200.852 667.88 200.852C667.235 200.852 666.942 200.316 666.942 199.064C666.942 197.395 667.118 197.276 668.993 197.276C671.982 197.276 673.974 195.13 673.974 191.912C673.974 187.859 670.224 185.118 667.88 187.502C667.001 188.336 666.942 188.336 666.942 187.502C666.942 186.429 666.825 186.429 664.188 187.204ZM670.634 190.72C671.396 192.985 670.224 195.488 668.407 195.488C667.059 195.488 666.942 195.309 666.942 192.627C666.942 191.018 667.118 189.528 667.352 189.29C668.231 188.455 670.165 189.29 670.634 190.72ZM678.721 189.17C676.025 189.588 675.615 188.932 677.607 187.502C678.31 186.965 679.717 186.548 680.713 186.548C681.709 186.548 683.116 186.965 683.819 187.502C684.932 188.276 685.108 188.932 685.108 191.972C685.108 194.832 685.284 195.488 686.046 195.488C686.866 195.488 686.866 195.667 686.28 196.382C685.401 197.455 683.291 197.574 682.295 196.561C681.826 196.084 681.416 196.084 680.772 196.62C679.658 197.574 676.904 197.216 676.142 196.024C675.849 195.488 675.732 194.415 675.908 193.581C676.259 192.27 676.728 192.031 679.248 191.674C682.237 191.256 682.53 191.018 681.651 189.588C681.24 188.992 680.479 188.872 678.721 189.17ZM679.131 195.011C680.01 195.905 682.295 194.952 682.061 193.819C681.826 192.448 679.365 192.15 678.896 193.402C678.662 193.938 678.779 194.654 679.131 195.011Z" fill="black"/>
</svg>
