<svg width="447" height="14" viewBox="0 0 447 14" fill="none" xmlns="http://www.w3.org/2000/svg">
<path fill-rule="evenodd" clip-rule="evenodd" d="M224 7C224 10.866 220.866 14 217 14C213.134 14 210 10.866 210 7C210 3.134 213.134 0 217 0C220.866 0 224 3.134 224 7ZM222 7C222 10.3137 219.761 13 217 13C214.239 13 212 10.3137 212 7C212 3.68629 214.239 1 217 1C219.761 1 222 3.68629 222 7ZM227 0.097559V5.5V6.04878H227.011C227.16 9.9347 228.889 13 231 13C233.111 13 234.84 9.9347 234.989 6.04878H235V5.5V0.097559H237V6.5V7.04878H236.984C236.759 10.9347 234.166 14 231 14C227.834 14 225.241 10.9347 225.016 7.04878H225V6.5V0.097559H227ZM181 4H0V7H181V4ZM447 4H266V7H447V4Z" fill="#102542"/>
</svg>
